<svg xmlns="http://www.w3.org/2000/svg" width="50" height="50" viewBox="0 0 500 500"><path d="M200 489C33 457-49 248 51 111 177-63 450-6 489 203c23 125-64 263-178 283-20 3-43 7-51 9-8 1-35-1-60-6zm99-57c14-26-10-52-49-52-40 0-63 25-46 52 15 25 82 25 95 0zM134 295c-8-33-51-52-71-32-16 15-4 58 24 89 15 16 17 16 35-7 13-17 17-32 12-50zm300 21c16-33 17-40 4-52-11-11-21-12-40-5-34 13-45 56-22 82s35 20 58-25zM179 154c66-55 18-109-49-55-43 35-49 58-18 70 33 14 33 14 67-15zm225 6c13-13 1-35-36-64-67-51-111 4-47 58 30 26 59 28 83 6z" style="transform:none"/><path d="M210 483c-14-2-34-18-47-37l-21-33 21-32c21-29 26-31 87-31s66 2 87 31l21 31-20 34c-11 19-26 34-33 34s-25 2-41 4-40 2-54-1zM55 380c-10-11-24-43-31-72-14-51-13-53 11-77s25-24 72-10c46 14 49 17 60 64 12 46 11 52-10 82-26 39-73 45-102 13zm287-14c-22-33-23-37-10-82s16-49 61-63c47-14 48-14 72 10 25 24 25 26 11 79-24 93-90 120-134 56zM105 208c-44-16-55-27-55-58 0-33 29-71 76-101 32-20 39-21 75-9 39 13 39 13 39 66 0 49-3 55-37 83-40 33-51 35-98 19zm193-18c-35-29-38-35-38-84 0-53 0-53 40-66 37-12 42-11 79 13 101 67 93 142-15 163-23 4-37-2-66-26z" style="transform:none" fill="#FFF"/></svg>