<svg width="95" height="40" fill="none" xmlns="http://www.w3.org/2000/svg"><path d="m11 12.429-10 10 10 10M31 12.429l10 10-10 10" stroke="#000" stroke-width="2" stroke-linecap="round" stroke-linejoin="round"/><path d="m24.535 5.043-8.587 32.046a.816.816 0 1 1-1.577-.422L22.958 4.62a.816.816 0 0 1 1.577.423Z" fill="#000"/><path d="M22.958 4.62a.816.816 0 0 1 1.577.423l-1.046 3.903-1.577-.423 1.046-3.903Z" fill="#D9D9D9"/><path d="m25.695 7.022 3.154.846M17.81 4.91l3.154.845M19.646 1.211l1.637 2.81M17.587 8.897l2.822-1.615M25.276 8.586l1.637 2.81M26.15 5.324l2.823-1.614" stroke="#000" stroke-linecap="round"/><path d="M55.016 15.072c-.832 0-1.584-.184-2.256-.552a4.11 4.11 0 0 1-1.572-1.524 4.337 4.337 0 0 1-.564-2.196c0-.808.188-1.536.564-2.184a4.061 4.061 0 0 1 1.584-1.536c.672-.368 1.424-.552 2.256-.552.624 0 1.2.104 1.728.312.528.208.976.512 1.344.912l-.564.564c-.656-.664-1.484-.996-2.484-.996a3.65 3.65 0 0 0-1.812.456c-.544.304-.972.72-1.284 1.248A3.495 3.495 0 0 0 51.5 10.8c0 .656.152 1.248.456 1.776.312.528.74.944 1.284 1.248a3.65 3.65 0 0 0 1.812.456c1.008 0 1.836-.336 2.484-1.008l.564.564c-.368.4-.82.708-1.356.924a4.674 4.674 0 0 1-1.728.312Zm7.096-.012a3.319 3.319 0 0 1-1.644-.408 3.063 3.063 0 0 1-1.152-1.152 3.267 3.267 0 0 1-.42-1.656c0-.616.14-1.168.42-1.656.28-.488.664-.868 1.152-1.14a3.319 3.319 0 0 1 1.644-.408c.608 0 1.156.136 1.644.408.488.272.868.652 1.14 1.14.28.488.42 1.04.42 1.656 0 .616-.14 1.168-.42 1.656a2.976 2.976 0 0 1-1.14 1.152 3.319 3.319 0 0 1-1.644.408Zm0-.756c.448 0 .848-.1 1.2-.3.36-.208.64-.5.84-.876.2-.376.3-.804.3-1.284s-.1-.908-.3-1.284c-.2-.376-.48-.664-.84-.864a2.314 2.314 0 0 0-1.2-.312c-.448 0-.852.104-1.212.312-.352.2-.632.488-.84.864-.2.376-.3.804-.3 1.284s.1.908.3 1.284c.208.376.488.668.84.876.36.2.764.3 1.212.3Zm10.703-8.208V15H72v-1.248a2.587 2.587 0 0 1-1.02.972 2.939 2.939 0 0 1-1.416.336 3.204 3.204 0 0 1-1.608-.408 2.916 2.916 0 0 1-1.128-1.14c-.272-.488-.408-1.044-.408-1.668 0-.624.136-1.18.408-1.668a2.834 2.834 0 0 1 1.128-1.128 3.204 3.204 0 0 1 1.608-.408c.512 0 .972.108 1.38.324a2.57 2.57 0 0 1 1.02.924V6.096h.852Zm-3.18 8.208c.44 0 .836-.1 1.188-.3.36-.208.64-.5.84-.876.208-.376.312-.804.312-1.284s-.104-.908-.312-1.284c-.2-.376-.48-.664-.84-.864a2.29 2.29 0 0 0-1.188-.312c-.448 0-.852.104-1.212.312-.352.2-.632.488-.84.864-.2.376-.3.804-.3 1.284s.1.908.3 1.284c.208.376.488.668.84.876.36.2.764.3 1.212.3Zm5.553-5.616h.852V15h-.852V8.688Zm.432-1.38a.603.603 0 0 1-.444-.18.59.59 0 0 1-.18-.432c0-.16.06-.3.18-.42s.268-.18.444-.18.324.06.444.18c.12.112.18.248.18.408 0 .176-.06.324-.18.444a.603.603 0 0 1-.444.18Zm6.007 1.332c.792 0 1.42.232 1.884.696.472.456.708 1.124.708 2.004V15h-.852v-3.576c0-.656-.164-1.156-.492-1.5-.328-.344-.796-.516-1.404-.516-.68 0-1.22.204-1.62.612-.392.4-.588.956-.588 1.668V15h-.852V8.688h.816v1.164c.232-.384.552-.68.96-.888.416-.216.896-.324 1.44-.324Zm10.772.048v5.544c0 1.072-.264 1.864-.792 2.376-.52.52-1.308.78-2.364.78a5.24 5.24 0 0 1-1.668-.264c-.52-.168-.944-.404-1.272-.708l.432-.648c.304.272.672.484 1.104.636.44.152.9.228 1.38.228.8 0 1.388-.188 1.764-.564.376-.368.564-.944.564-1.728v-.804c-.264.4-.612.704-1.044.912a3.172 3.172 0 0 1-1.416.312 3.433 3.433 0 0 1-1.62-.384 2.99 2.99 0 0 1-1.14-1.092 3.138 3.138 0 0 1-.408-1.596c0-.592.136-1.12.408-1.584.28-.464.66-.824 1.14-1.08a3.388 3.388 0 0 1 1.62-.384c.536 0 1.02.108 1.452.324.432.216.78.528 1.044.936V8.688h.816Zm-3.228 5.316c.456 0 .868-.096 1.236-.288.368-.2.652-.476.852-.828.208-.352.312-.752.312-1.2a2.25 2.25 0 0 0-.312-1.188 2.045 2.045 0 0 0-.852-.816c-.36-.2-.772-.3-1.236-.3-.456 0-.868.096-1.236.288-.36.192-.644.464-.852.816-.2.352-.3.752-.3 1.2 0 .448.1.848.3 1.2.208.352.492.628.852.828.368.192.78.288 1.236.288ZM77.957 23.453c-.168.246-.355.541-.563.885a34.48 34.48 0 0 0-.662 1.154c-.199.356-.396.735-.591 1.137a45.606 45.606 0 0 0-1.038 2.32 66.008 66.008 0 0 0-.738 1.87c-.039.097-.11.146-.21.146a.21.21 0 0 1-.136-.047.244.244 0 0 1-.076-.129l-.058-.246a215.79 215.79 0 0 0-.363-1.588 78.885 78.885 0 0 0-.253-1.107c-.085-.387-.173-.778-.263-1.172-.09-.395-.174-.77-.252-1.125a22.425 22.425 0 0 1-.791 1.963 11.45 11.45 0 0 1-.809 1.482 6.24 6.24 0 0 1-.861 1.055 4.206 4.206 0 0 1-.926.691c-.32.172-.658.295-1.014.37a5.41 5.41 0 0 1-1.119.11c-.203 0-.42-.023-.65-.07a3.437 3.437 0 0 1-.686-.205 3.625 3.625 0 0 1-.65-.351 2.67 2.67 0 0 1-.55-.498 2.387 2.387 0 0 1-.382-.657 2.29 2.29 0 0 1-.14-.82c0-.316.066-.605.199-.867.133-.266.313-.492.54-.68.226-.191.487-.34.784-.445.301-.106.617-.158.95-.158.242 0 .458.021.65.064.195.04.367.09.515.152.149.063.276.131.381.206.106.074.194.142.264.205.07.062.121.117.152.164a.306.306 0 0 0 .053.064.258.258 0 0 1 .035.123.222.222 0 0 1-.064.153.195.195 0 0 1-.158.07.219.219 0 0 1-.188-.1 8.24 8.24 0 0 1-.094-.105 1.197 1.197 0 0 0-.287-.229 2.308 2.308 0 0 0-.515-.222 2.52 2.52 0 0 0-.762-.1c-.274 0-.533.043-.78.129-.242.082-.454.2-.638.351-.18.153-.324.334-.434.545a1.488 1.488 0 0 0-.158.686c0 .246.041.47.123.674.082.203.192.385.328.545a2.2 2.2 0 0 0 .475.416c.18.117.367.215.562.293.196.074.391.13.586.17.2.035.387.052.563.052.297 0 .586-.021.867-.064.285-.047.564-.133.838-.258.277-.125.549-.297.814-.515.266-.22.53-.505.791-.856.262-.352.52-.775.774-1.271a16.93 16.93 0 0 0 1.002-2.415c.074-.234.15-.47.228-.709a14.577 14.577 0 0 1-.146-.878 5.542 5.542 0 0 1-.041-.604c0-.172.013-.309.04-.41a.593.593 0 0 1 .106-.229.256.256 0 0 1 .14-.1.41.41 0 0 1 .275 0c.052.016.097.052.136.106.043.051.078.127.106.229.027.101.04.238.04.41 0 .187-.017.404-.052.65a9.236 9.236 0 0 1-.158.815c.05.238.109.504.175.797a1182.75 1182.75 0 0 0 .639 2.836l.2.896.18.773c.106-.265.235-.585.388-.96a52.124 52.124 0 0 1 1.102-2.496c.21-.442.425-.858.644-1.249a23.7 23.7 0 0 1 .85-1.423c.257-.399.48-.727.667-.985a8.976 8.976 0 0 1 .615-.773.215.215 0 0 1 .159-.065c.066 0 .119.024.158.07a.208.208 0 0 1 .047.235 17.746 17.746 0 0 0-.24.633c-.067.191-.141.418-.223.68a16.22 16.22 0 0 0-.451 1.775 10.38 10.38 0 0 0-.159 1.441 8.71 8.71 0 0 0 .024 1.266c.023.262.063.514.117.756a3.8 3.8 0 0 0 .223.685c.094.211.209.397.346.557.136.16.298.289.486.387.191.097.412.15.662.158a.183.183 0 0 1 .146.082c.04.047.059.098.059.152a.202.202 0 0 1-.064.147.208.208 0 0 1-.153.064c-.062 0-.125-.006-.187-.017-.281-.04-.53-.12-.744-.24a2.19 2.19 0 0 1-.557-.458 2.654 2.654 0 0 1-.393-.62 4.432 4.432 0 0 1-.246-.75 6.187 6.187 0 0 1-.135-.827 10.817 10.817 0 0 1 .018-1.916 13.446 13.446 0 0 1 .346-1.975c.078-.308.158-.595.24-.86Zm6.744 5.912-.1.2c-.046.097-.109.21-.187.34a4.71 4.71 0 0 1-.264.404c-.101.14-.215.27-.34.386-.124.117-.26.215-.404.293a.987.987 0 0 1-.457.112.814.814 0 0 1-.574-.217 1.272 1.272 0 0 1-.334-.545c-.133.223-.291.4-.475.533a.954.954 0 0 1-.55.194.977.977 0 0 1-.393-.077.894.894 0 0 1-.299-.222 1.114 1.114 0 0 1-.193-.34 1.326 1.326 0 0 1-.065-.422c0-.305.051-.572.153-.803a1.89 1.89 0 0 1 .398-.586 1.64 1.64 0 0 1 .527-.351c.196-.078.383-.117.563-.117.121 0 .233.017.334.052.102.031.188.067.258.106.074.039.13.076.17.111a1.7 1.7 0 0 1 .064.053c.043.05.065.103.065.158a.228.228 0 0 1-.065.158.208.208 0 0 1-.152.065.215.215 0 0 1-.158-.065.51.51 0 0 0-.053-.04.553.553 0 0 0-.111-.071.789.789 0 0 0-.17-.059.729.729 0 0 0-.217-.03c-.121 0-.25.028-.387.083-.137.055-.262.14-.375.258a1.423 1.423 0 0 0-.287.433 1.545 1.545 0 0 0-.088.844.626.626 0 0 0 .082.205.454.454 0 0 0 .158.152c.067.04.149.06.246.06a.53.53 0 0 0 .24-.071.837.837 0 0 0 .264-.217c.086-.098.162-.22.229-.37.07-.148.119-.323.146-.526a.206.206 0 0 1 .077-.135.219.219 0 0 1 .152-.059c.055 0 .102.022.14.065a.226.226 0 0 1 .07.146l.024.317c.012.132.037.265.076.398.043.133.106.248.188.346a.42.42 0 0 0 .34.146.554.554 0 0 0 .275-.076c.094-.05.184-.117.27-.2.09-.085.174-.18.252-.286a4.062 4.062 0 0 0 .398-.645c.05-.101.094-.19.129-.264a.232.232 0 0 1 .082-.1.236.236 0 0 1 .123-.034.19.19 0 0 1 .158.076.221.221 0 0 1 .065.152.207.207 0 0 1-.018.082Zm1.717 2.21c.734-.958 1.244-1.753 1.53-2.386a.207.207 0 0 1 .193-.128c.066 0 .12.023.164.07a.208.208 0 0 1 .047.234c-.172.39-.416.826-.733 1.307a22.31 22.31 0 0 1-1.201 1.629c0 .246.002.492.006.738s.006.516.006.809c0 .293-.008.582-.024.867-.012.289-.035.562-.07.82a5.093 5.093 0 0 1-.147.72 2.153 2.153 0 0 1-.234.575 1.094 1.094 0 0 1-.346.38.801.801 0 0 1-.474.142.694.694 0 0 1-.604-.3c-.14-.199-.21-.482-.21-.849 0-.195.017-.408.052-.639.04-.226.094-.46.164-.703.07-.242.154-.488.252-.738.102-.246.213-.486.334-.72.121-.235.252-.46.393-.675.144-.214.296-.41.457-.585.004-.274.005-.545.005-.815.004-.27.01-.517.018-.744a1.303 1.303 0 0 1-.422.352c-.16.085-.32.128-.48.128a.906.906 0 0 1-.375-.076.866.866 0 0 1-.281-.222 1.089 1.089 0 0 1-.182-.34 1.326 1.326 0 0 1-.065-.422c0-.305.051-.572.153-.803a1.89 1.89 0 0 1 .398-.586 1.64 1.64 0 0 1 .527-.351c.196-.078.383-.117.563-.117.121 0 .233.015.334.046.102.032.188.067.258.106a.853.853 0 0 1 .234.17c.043.047.065.1.065.158a.228.228 0 0 1-.065.158.208.208 0 0 1-.152.065.243.243 0 0 1-.158-.065 3.507 3.507 0 0 0-.065-.047.57.57 0 0 0-.246-.129.734.734 0 0 0-.2-.023c-.116 0-.245.027-.386.082a1.14 1.14 0 0 0-.392.246c-.121.113-.223.26-.305.44a1.503 1.503 0 0 0-.123.638c0 .188.04.34.123.457.082.113.209.17.38.17a.558.558 0 0 0 .259-.07.9.9 0 0 0 .27-.217c.085-.098.16-.22.222-.37a1.92 1.92 0 0 0 .14-.526.206.206 0 0 1 .077-.135.219.219 0 0 1 .152-.059c.066 0 .117.024.152.07.04.047.059.1.059.159l-.006.181c-.004.114-.008.266-.012.457l-.017.668-.012.797Zm-.445 1.282c-.184.254-.35.53-.498.827a7.86 7.86 0 0 0-.381.908c-.106.305-.188.6-.246.885a4.209 4.209 0 0 0-.082.773c0 .145.011.26.035.346a.68.68 0 0 0 .093.199c.04.047.08.078.124.094.046.015.09.023.129.023a.417.417 0 0 0 .316-.146 1.21 1.21 0 0 0 .228-.393c.063-.16.114-.346.153-.557.039-.21.068-.43.088-.656.02-.222.033-.445.04-.668.009-.222.012-.427.012-.615v-.504c0-.168-.003-.34-.011-.516Zm2.935-6.457a.519.519 0 0 1-.158.381.51.51 0 0 1-.375.153.53.53 0 0 1-.38-.153.53.53 0 0 1-.153-.38c0-.075.014-.143.04-.206a.516.516 0 0 1 .112-.17c.05-.05.108-.09.17-.117a.55.55 0 0 1 .416 0 .473.473 0 0 1 .17.117.507.507 0 0 1 .158.375Zm-.949 3.434c0-.563.035-1.123.105-1.682a.242.242 0 0 1 .07-.14.222.222 0 0 1 .165-.065c.058 0 .107.024.146.07.04.044.059.094.059.153 0 .023-.006.094-.018.21-.008.118-.02.259-.035.423l-.035.515c-.008.18-.012.346-.012.498 0 .207.02.375.059.504a.858.858 0 0 0 .158.293.51.51 0 0 0 .205.14.702.702 0 0 0 .211.036c.11 0 .223-.039.34-.117a1.81 1.81 0 0 0 .357-.328c.125-.14.25-.309.375-.504.125-.2.248-.42.37-.662a.2.2 0 0 1 .082-.088.207.207 0 0 1 .117-.035c.062 0 .113.023.152.07a.222.222 0 0 1 .064.152c0 .04-.007.073-.023.1-.047.09-.105.2-.176.328a5.69 5.69 0 0 1-.539.809 3.01 3.01 0 0 1-.34.363 1.819 1.819 0 0 1-.38.258.932.932 0 0 1-.867-.012 1.08 1.08 0 0 1-.34-.299 1.384 1.384 0 0 1-.206-.44 2.269 2.269 0 0 1-.064-.55Zm.621-3.434a.183.183 0 0 0-.064-.14.183.183 0 0 0-.141-.065.183.183 0 0 0-.14.065.191.191 0 0 0-.06.14c0 .055.02.102.06.141.038.04.085.059.14.059.055 0 .102-.02.14-.059a.183.183 0 0 0 .065-.14Zm5.725 2.977c-.024.043-.065.121-.123.234a3.15 3.15 0 0 1-.229.387c-.094.14-.207.287-.34.44a2.489 2.489 0 0 1-1.037.732 1.89 1.89 0 0 1-.691.123c-.223 0-.42-.041-.592-.123a1.23 1.23 0 0 1-.44-.334 1.548 1.548 0 0 1-.275-.521c-.062-.2-.094-.42-.094-.663a2.1 2.1 0 0 1 .1-.656c.066-.207.156-.387.27-.539.117-.152.252-.271.404-.357a.943.943 0 0 1 .838-.065.743.743 0 0 1 .263.176c.075.074.131.156.17.246a.62.62 0 0 1 .065.27.795.795 0 0 1-.035.24.763.763 0 0 1-.082.199.479.479 0 0 1-.112.135.222.222 0 0 1-.293-.018.226.226 0 0 1-.04-.24l.046-.07a.398.398 0 0 0 .07-.24c0-.083-.039-.157-.117-.223a.414.414 0 0 0-.287-.1.57.57 0 0 0-.316.1.948.948 0 0 0-.258.27c-.074.109-.135.24-.182.392a1.698 1.698 0 0 0-.064.474c0 .16.02.313.058.457.04.145.098.274.176.387.078.11.176.198.293.264.121.066.264.1.428.1.21 0 .406-.038.586-.112.18-.078.344-.176.492-.293.149-.117.28-.244.393-.38a4.67 4.67 0 0 0 .287-.393 2.844 2.844 0 0 0 .27-.498.17.17 0 0 1 .075-.088.236.236 0 0 1 .124-.035c.066 0 .119.023.158.07.043.047.064.1.064.158a.271.271 0 0 1-.023.094Z" fill="#000"/></svg>