<?xml version="1.0" standalone="no"?>
<!DOCTYPE svg PUBLIC "-//W3C//DTD SVG 20010904//EN"
 "http://www.w3.org/TR/2001/REC-SVG-20010904/DTD/svg10.dtd">
<svg version="1.0" xmlns="http://www.w3.org/2000/svg"
 width="672.000000pt" height="672.000000pt" viewBox="0 0 672.000000 672.000000"
 preserveAspectRatio="xMidYMid meet">
<metadata>
Created by potrace 1.14, written by Peter Selinger 2001-2017
</metadata>
<g transform="translate(0.000000,672.000000) scale(0.100000,-0.100000)"
fill="#000000" stroke="none">
<path d="M3085 6425 c-44 -43 -36 -68 106 -313 137 -236 172 -282 215 -282 34
0 84 50 84 85 0 29 -269 500 -298 522 -28 21 -80 16 -107 -12z"/>
<path d="M4370 5914 c-129 -74 -243 -144 -252 -155 -27 -32 -23 -76 11 -110
16 -16 39 -29 52 -29 25 0 471 251 512 288 36 34 37 83 2 117 -44 45 -69 36
-325 -111z"/>
<path d="M3735 5902 c-55 -34 -45 -7 -171 -477 -25 -93 -52 -190 -59 -215 -8
-25 -48 -172 -89 -327 -42 -156 -110 -409 -151 -563 -41 -154 -109 -406 -150
-560 -41 -154 -109 -406 -150 -560 -41 -154 -109 -406 -150 -560 -41 -154
-109 -406 -150 -560 -41 -154 -109 -406 -150 -560 -41 -154 -109 -406 -150
-560 -41 -153 -75 -292 -75 -308 0 -40 38 -94 83 -116 50 -24 98 -15 143 27
32 30 38 48 104 297 92 342 234 872 741 2765 159 594 315 1175 345 1290 30
116 66 251 79 300 14 50 32 117 40 150 9 33 25 92 35 130 81 303 83 319 49
366 -41 58 -117 76 -174 41z"/>
<path d="M2794 5836 c-21 -18 -28 -32 -28 -60 0 -53 28 -75 131 -103 420 -113
462 -123 486 -114 67 26 76 119 15 152 -12 6 -69 24 -127 39 -58 16 -174 47
-258 69 -84 23 -161 41 -172 41 -11 0 -32 -11 -47 -24z"/>
<path d="M4056 5499 c-44 -35 -32 -119 20 -139 59 -23 515 -140 543 -140 42 0
81 39 81 79 0 64 -23 75 -307 151 -144 38 -273 70 -286 70 -14 0 -36 -9 -51
-21z"/>
<path d="M3004 5344 c-131 -74 -247 -145 -256 -156 -21 -23 -23 -76 -5 -99 16
-20 51 -39 74 -39 22 0 488 265 513 293 44 46 4 137 -60 137 -16 0 -123 -54
-266 -136z"/>
<path d="M3985 5245 c-44 -43 -36 -66 110 -317 136 -233 169 -278 206 -278 47
0 88 39 89 84 0 31 -256 482 -294 517 -29 27 -81 24 -111 -6z"/>
<path d="M1706 4725 c-32 -11 -211 -185 -859 -832 -450 -450 -825 -830 -833
-845 -8 -15 -14 -51 -14 -81 0 -44 5 -61 29 -93 51 -69 1635 -1643 1664 -1653
113 -43 228 31 229 147 0 27 -5 60 -12 73 -7 13 -350 363 -763 776 l-752 753
751 752 c414 414 757 763 763 776 7 13 12 45 13 71 0 78 -36 131 -109 157 -48
17 -59 16 -107 -1z"/>
<path d="M4907 4726 c-73 -26 -109 -79 -109 -157 1 -26 6 -58 13 -71 6 -13
349 -362 763 -776 l751 -752 -752 -753 c-413 -413 -756 -763 -763 -776 -7 -13
-12 -46 -12 -73 1 -116 116 -190 229 -147 29 10 1613 1584 1664 1653 24 32 29
49 29 93 0 30 -6 66 -14 81 -8 15 -385 397 -838 849 -916 914 -859 865 -961
829z"/>
</g>
</svg>
